<svg width="979" height="763" viewBox="0 0 979 763" fill="none" xmlns="http://www.w3.org/2000/svg">
<path d="M193.532 755.243L187.255 689.054L151.415 679.166L152.407 692.739L127.883 691.378L126.51 680.308L95.0857 682.015L100.985 762.567L193.532 755.243Z" fill="#FF0000"/>
<path d="M206.913 753.909L200.717 694.974L308.975 725.126L311.022 744.477L206.913 753.909Z" fill="#FF0000"/>
<path d="M9.0052 522.716L0.725763 414.336L0.460938 409.926L39.9184 406.318L50.1784 529.982L32.9256 531.727L9.0052 522.716Z" fill="#FF0000"/>
<path d="M85.151 587.368L85.8396 598.832L97.5756 602.555L109.654 606.079L115.595 607.67L136.419 615.273L139.26 603.594L132.602 539.909L82.9124 547.136L85.151 587.368Z" fill="#FF0000"/>
<path d="M416.66 495.072L410.089 418.101L493.563 410.084L500.583 488.619L416.66 495.072Z" fill="#FF0000"/>
<path d="M543.875 256.939L455.948 167.146L392.072 171.156L404.401 175.904L500.74 326.092L514.78 495.026C528.624 505.29 559.845 528.153 574.011 537.501C588.173 546.849 599.454 562.059 603.325 568.496L671.862 521.186L741.185 419.128L744.391 401.763L644.63 330.206L543.875 256.939Z" fill="#FF0000"/>
<path d="M405.755 413.757L399.199 339.974L489.839 333.296L495.945 405.513L405.755 413.757Z" fill="#FF0000"/>
<path d="M402.107 497.537L396.065 417.526L406.062 415.866L412.303 496.218L402.107 497.537Z" fill="#FF0000"/>
<path d="M965.468 561.637L743.735 452.789L693.304 524.327L702.971 614.564L771.35 608.87L771.607 621.952L969.197 606.029L965.468 561.637Z" fill="#FF0000"/>
<path d="M902.371 442.916L896.582 375.99L931.969 372.451L939.913 460.491L902.371 442.916Z" fill="#FF0000"/>
<path d="M942.656 421.494L976.727 419.508L978.2 431.095L943.925 433.852L942.656 421.494Z" fill="#FF0000"/>
<path d="M659.283 692.248L655.329 641.146L689.837 637.657L694.674 688.709L659.283 692.248Z" fill="#FF0000"/>
<path d="M261.612 21.953L264.098 51.5457L271.392 170.076L368.785 160.869L362.215 128.157L356.465 103.186L343.501 87.8542L299.944 40.8975L260.881 0.929688L261.612 21.953Z" fill="#FF0000"/>
<path d="M79.9154 523.771L186.922 515.404L177.206 403.746L132.599 407.131L130.922 393.953L67.64 398.991L79.9154 523.771Z" fill="#FF0000"/>
</svg>
