<svg width="256" height="199" viewBox="0 0 256 199" fill="none" xmlns="http://www.w3.org/2000/svg">
<path d="M50.7131 196.977L49.0767 179.714L39.7334 177.135L39.9921 180.675L33.5989 180.32L33.2409 177.433L25.0489 177.878L26.5869 198.887L50.7131 196.977Z" fill="#FF0000"/>
<path d="M54.2013 196.629L52.5861 181.258L80.8081 189.122L81.3419 194.169L54.2013 196.629Z" fill="#FF0000"/>
<path d="M2.60835 136.331L0.449964 108.064L0.380926 106.914L10.6672 105.973L13.3419 138.226L8.84423 138.681L2.60835 136.331Z" fill="#FF0000"/>
<path d="M22.459 153.193L22.6385 156.183L25.698 157.154L28.8468 158.073L30.3954 158.488L35.8243 160.471L36.5649 157.425L34.8292 140.815L21.8754 142.7L22.459 153.193Z" fill="#FF0000"/>
<path d="M108.881 129.121L107.168 109.046L128.929 106.955L130.759 127.438L108.881 129.121Z" fill="#FF0000"/>
<path d="M142.045 67.0129L119.123 43.5939L102.471 44.6396L105.685 45.8781L130.8 85.049L134.46 129.109C138.069 131.786 146.208 137.749 149.901 140.187C153.593 142.625 156.534 146.592 157.543 148.271L175.41 135.932L193.482 109.314L194.318 104.785L168.311 86.1219L142.045 67.0129Z" fill="#FF0000"/>
<path d="M106.038 107.913L104.329 88.6694L127.958 86.9279L129.55 105.763L106.038 107.913Z" fill="#FF0000"/>
<path d="M105.087 129.764L103.512 108.896L106.118 108.463L107.745 129.42L105.087 129.764Z" fill="#FF0000"/>
<path d="M251.951 146.482L194.147 118.093L181 136.751L183.52 160.286L201.346 158.801L201.413 162.213L252.923 158.06L251.951 146.482Z" fill="#FF0000"/>
<path d="M235.502 115.518L233.993 98.0629L243.218 97.1398L245.289 120.102L235.502 115.518Z" fill="#FF0000"/>
<path d="M246.004 109.931L254.886 109.413L255.27 112.435L246.335 113.154L246.004 109.931Z" fill="#FF0000"/>
<path d="M172.131 180.547L171.1 167.219L180.096 166.309L181.357 179.624L172.131 180.547Z" fill="#FF0000"/>
<path d="M68.461 5.72564L69.109 13.4438L71.0107 44.3579L96.4002 41.9566L94.6876 33.4251L93.1885 26.9123L89.8088 22.9135L78.4539 10.6666L68.2704 0.2425L68.461 5.72564Z" fill="#FF0000"/>
<path d="M21.0941 136.606L48.99 134.424L46.4571 105.302L34.8284 106.185L34.3912 102.748L17.894 104.062L21.0941 136.606Z" fill="#FF0000"/>
</svg>
