<svg width="243" height="229" viewBox="0 0 243 229" fill="none" xmlns="http://www.w3.org/2000/svg">
<path d="M21.8488 161.599L29.063 145.83L22.261 138.925L20.7151 142.12L15.356 138.616L16.4896 135.937L9.17237 132.226L0 151.189L21.8488 161.599Z" fill="#FF0000"/>
<path d="M25.0437 163.041L31.3303 148.922L51.8393 169.843L49.7781 174.481L25.0437 163.041Z" fill="#FF0000"/>
<path d="M10.5122 85.0247L22.7763 59.4658L23.2916 58.4352L32.6701 62.7637L18.86 92.0329L14.7376 90.1778L10.5122 85.0247Z" fill="#FF0000"/>
<path d="M19.2723 109.553L17.9325 112.233L20.0968 114.603L22.3641 116.973L23.4977 118.107L27.2079 122.539L29.3722 120.271L36.1742 105.018L24.0131 100.175L19.2723 109.553Z" fill="#FF0000"/>
<path d="M106.152 131.917L114.706 113.676L134.597 122.745L125.94 141.399L106.152 131.917Z" fill="#FF0000"/>
<path d="M165.927 94.7124L157.785 62.9698L142.842 55.5495L145.006 58.2291L147.17 104.709L128.31 144.697C130.096 148.819 134.164 158.053 136.143 162.011C138.121 165.968 138.685 170.874 138.719 172.832L160.362 171.08L189.322 157.064L192.311 153.56L179.119 124.394L165.927 94.7124Z" fill="#FF0000"/>
<path d="M114.294 112.13L122.436 94.6094L143.769 104.915L135.73 122.023L114.294 112.13Z" fill="#FF0000"/>
<path d="M102.545 130.577L111.614 111.717L114.088 112.645L105.018 131.608L102.545 130.577Z" fill="#FF0000"/>
<path d="M221.374 218.488L185.509 165L164.793 174.584L155.209 196.227L171.389 203.853L169.74 206.842L216.427 229L221.374 218.488Z" fill="#FF0000"/>
<path d="M222.61 183.447L230.031 167.576L238.482 171.389L228.794 192.311L222.61 183.447Z" fill="#FF0000"/>
<path d="M234.499 183.86L242.449 187.852L241.272 190.662L233.174 186.817L234.499 183.86Z" fill="#FF0000"/>
<path d="M135.215 208.079L140.986 196.021L149.231 199.731L143.666 211.892L135.215 208.079Z" fill="#FF0000"/>
<path d="M132.845 4.84383L129.547 11.8519L115.737 39.5752L138.925 50.1904L141.708 41.9455L143.666 35.5558L142.739 30.4028L139.028 14.1193L135.421 0L132.845 4.84383Z" fill="#FF0000"/>
<path d="M26.3834 94.5063L51.6332 106.564L64.0005 80.0779L53.4883 75.0279L54.8281 71.833L39.8843 64.7219L26.3834 94.5063Z" fill="#FF0000"/>
</svg>
